<?xml version="1.0" standalone="no"?>
<!DOCTYPE svg PUBLIC "-//W3C//DTD SVG 20010904//EN"
 "http://www.w3.org/TR/2001/REC-SVG-20010904/DTD/svg10.dtd">
<svg version="1.0" xmlns="http://www.w3.org/2000/svg"
 width="260.000000pt" height="260.000000pt" viewBox="0 0 260.000000 260.000000"
 preserveAspectRatio="xMidYMid meet">
<metadata>
Created by potrace 1.11, written by Peter Selinger 2001-2013
</metadata>
<g transform="translate(0.000000,260.000000) scale(0.100000,-0.100000)"
fill="#000000" stroke="none">
<path d="M508 1816 c-79 -28 -112 -50 -171 -116 -78 -87 -109 -177 -109 -318
0 -195 105 -356 275 -417 82 -30 224 -29 305 3 131 51 225 164 259 312 6 29 7
165 0 206 -9 57 -43 140 -78 189 -101 140 -309 201 -481 141z m223 -38 c49
-16 106 -64 134 -111 100 -172 70 -513 -57 -621 -100 -86 -260 -73 -342 28
-90 109 -118 354 -60 518 34 98 89 161 159 186 41 14 125 14 166 0z"/>
<path d="M1465 1811 c-7 -12 2 -17 46 -25 65 -12 64 -3 65 -385 2 -394 2 -394
-67 -408 -22 -4 -40 -12 -40 -18 1 -6 126 -11 349 -13 l348 -2 23 92 c13 51
27 100 32 110 14 26 -18 31 -36 5 -8 -12 -15 -27 -15 -33 0 -20 -63 -75 -110
-98 -39 -18 -64 -21 -188 -21 -116 0 -145 3 -152 15 -6 9 -9 152 -8 368 l3
354 24 19 c13 10 38 19 57 19 24 0 34 5 34 15 0 13 -27 15 -179 15 -100 0
-182 -4 -186 -9z"/>
<path d="M1261 1088 c-55 -20 -68 -83 -25 -117 36 -28 68 -26 98 5 50 55 -4
138 -73 112z"/>
<path d="M2357 1076 c-10 -8 -20 -29 -24 -48 -4 -30 -1 -38 22 -56 45 -36 86
-26 115 28 11 21 5 46 -18 73 -18 20 -70 22 -95 3z"/>
</g>
</svg>
